<svg id="Camada_1" data-name="Camada 1" xmlns="http://www.w3.org/2000/svg" viewBox="0 0 354 354"><defs><style>.cls-1{fill:#fff;}</style></defs><title>StephaniVarella_ÍconeWhite</title><path class="cls-1" d="M31.82,289.61a8.37,8.37,0,0,1,4.7,1.37,9.4,9.4,0,0,1,3.34,3.89,13.39,13.39,0,0,1,1.23,5.93,15.42,15.42,0,0,1-1.37,6.3,9,9,0,0,1-4,4.46L35,311a8.48,8.48,0,0,0,3.82-4.22,14.37,14.37,0,0,0,1.32-6,8,8,0,0,0-1.54-5.16,5.25,5.25,0,0,0-4.32-1.9,5.06,5.06,0,0,0-3.87,1.94A23.05,23.05,0,0,0,27,301.76a53.21,53.21,0,0,1-2.71,5.65,9.39,9.39,0,0,1-2.74,3.12,6.44,6.44,0,0,1-3.77,1.08A7.83,7.83,0,0,1,13,310.14a9.07,9.07,0,0,1-3-3.91,13.76,13.76,0,0,1-1-5.33,13.23,13.23,0,0,1,1.49-6.15,9,9,0,0,1,4-4.13l.77.62a8.55,8.55,0,0,0-3.92,3.94,12,12,0,0,0-1.42,5.62,9.08,9.08,0,0,0,1.35,5.29A4.5,4.5,0,0,0,15.15,308a3.94,3.94,0,0,0,2.57-.89,8.11,8.11,0,0,0,1.9-2.4c.54-1,1.28-2.53,2.21-4.54l.67-1.44a26.37,26.37,0,0,1,4.18-6.9A6.7,6.7,0,0,1,31.82,289.61Z"/><path class="cls-1" d="M9.19,260.74h1v9.46H40.8v5.43H10.15v9.46h-1Z"/><path class="cls-1" d="M10.15,234.17v14.56H24.51V237.78h1v10.95H39.84V234.17h1v20H9.19v-20Z"/><path class="cls-1" d="M17.79,202.42a8.18,8.18,0,0,1,4.06,1.13A8.74,8.74,0,0,1,25.14,207a11.81,11.81,0,0,1,1.3,5.79v8.4H40.8v5.43H9.19V212.8A12.09,12.09,0,0,1,10.46,207a8.56,8.56,0,0,1,3.27-3.48A8.18,8.18,0,0,1,17.79,202.42Zm-.05,5.43a8,8,0,0,0-3.87.94,7.17,7.17,0,0,0-2.74,2.45,5.69,5.69,0,0,0-1,3.14v6.82H25.48v-6.82a5.57,5.57,0,0,0-1-3.14,7.33,7.33,0,0,0-2.79-2.45A8.25,8.25,0,0,0,17.74,207.85Z"/><path class="cls-1" d="M9.19,176.72v-5.43H40.8v5.43H25.52v13.4H40.8v5.43H9.19v-5.43H24.56v-13.4Z"/><path class="cls-1" d="M40.8,142l-9.18,4v13.35l9.18,4.22v1.06L8.9,150l31.9-13.93ZM30.66,159V146.41l-14,6.1Z"/><path class="cls-1" d="M9.19,105.53H40.8v1L17.12,128.78H40.8v1H9.19v-1l23.68-22.29H9.19Z"/><path class="cls-1" d="M9.19,96.54V91.12H40.8v5.42Z"/><path class="cls-1" d="M83.44,50.17,69.55,18.35h5.93L86,42.41,97,18.35h1Z"/><path class="cls-1" d="M118.57,49.89l-4-9.16H101.22L97,49.89H96l14.62-31.82,13.89,31.82ZM101.65,39.77h12.51l-6.09-13.94Z"/><path class="cls-1" d="M155.08,49.89h-5.56l-1.39-6.76a12.52,12.52,0,0,0-2.36-5.46,5.22,5.22,0,0,0-3.91-2.11H136.2V49.89h-5.41V18.35h13.8a12,12,0,0,1,5.75,1.27,8.58,8.58,0,0,1,3.47,3.26,7.9,7.9,0,0,1-.76,9.2,9.08,9.08,0,0,1-5.54,3.19,8.76,8.76,0,0,1,3.84,2.44,7.24,7.24,0,0,1,1.91,3.5ZM136.2,34.6H143a5.56,5.56,0,0,0,3.13-1,7.31,7.31,0,0,0,2.45-2.78,8.2,8.2,0,0,0,.93-3.93,7.94,7.94,0,0,0-.93-3.85,7.25,7.25,0,0,0-2.45-2.74,5.68,5.68,0,0,0-3.13-1H136.2Z"/><path class="cls-1" d="M183.07,19.31H168.55V33.64h10.92v1H168.55V48.93h14.52v1H163.14V18.35h19.93Z"/><path class="cls-1" d="M196.06,48.93h14.52v1H190.64V18.35h5.42Z"/><path class="cls-1" d="M223.56,48.93h14.52v1H218.15V18.35h5.41Z"/><path class="cls-1" d="M267,49.89l-4-9.16H249.63l-4.21,9.16h-1.06L259,18.07l13.89,31.82ZM250.06,39.77h12.51l-6.09-13.94Z"/><path class="cls-1" d="M221.09,231.47a50.92,50.92,0,0,1-8.21,28.25q-8.22,12.67-23.35,20t-35.59,7.34a92.07,92.07,0,0,1-37.77-8.2q-18.44-8.22-26.8-23.78l3.47-4.61q7.75,15,25.35,22.91a86.15,86.15,0,0,0,35.75,7.93q19.59,0,31-9.23t11.39-25.94q0-13-11.68-23.2t-36.46-20.61q-21.6-9.23-33.87-16.28T95.56,169.64Q89.08,160.3,89.08,147q0-16.71,8.79-28.67a54.87,54.87,0,0,1,23.49-18.16,81.61,81.61,0,0,1,32-6.2,79.36,79.36,0,0,1,36.9,8.93q17.3,8.94,24.79,24.21l-3.76,4.62q-7.2-15-23.63-23.49a72.52,72.52,0,0,0-33.72-8.51q-20.17,0-31.7,8.07t-11.53,23.64A23.51,23.51,0,0,0,116,146.87a47.5,47.5,0,0,0,14.41,11.39q9.08,4.91,27.24,13.26l8.65,4q27.94,12.7,41.36,25.08A40.27,40.27,0,0,1,221.09,231.47Z"/><path class="cls-1" d="M238.67,334.87,155.09,143.5h35.73L254,288.18,320.24,143.5h6.34Z"/><polygon class="cls-1" points="56.5 65.82 56.5 68.82 56.5 71.82 56.5 325 56.5 328.01 56.5 331.01 210.7 331.01 210.7 325 62.51 325 62.51 71.82 320.57 71.82 320.57 131.49 326.57 131.49 326.57 71.82 326.57 65.87 326.57 65.82 56.5 65.82"/></svg>