<svg id="Camada_1" data-name="Camada 1" xmlns="http://www.w3.org/2000/svg" viewBox="0 0 584.75 338.19"><defs><style>.cls-1{fill:#020202;}</style></defs><path class="cls-1" d="M72.78,315.1a5.58,5.58,0,0,1-1.89,1.49,5.14,5.14,0,0,1-2.32.54,5.36,5.36,0,0,1-2.72-.73,5.69,5.69,0,0,1-2-2,5.28,5.28,0,0,1-.74-2.75,5.36,5.36,0,0,1,.74-2.76,5.53,5.53,0,0,1,2-2,5.33,5.33,0,0,1,2.72-.73,5.21,5.21,0,0,1,2.19.48,5.15,5.15,0,0,1,1.8,1.34l.17.19,1.09-1-.18-.19a7.11,7.11,0,0,0-2.31-1.67,6.74,6.74,0,0,0-2.76-.59,6.59,6.59,0,0,0-3.44.94,6.93,6.93,0,0,0-2.49,9.42,6.94,6.94,0,0,0,2.49,2.53,6.75,6.75,0,0,0,6.39.26A6.82,6.82,0,0,0,73.9,316l.16-.2-1.13-.87Z"/><path class="cls-1" d="M96.34,305.67a6.9,6.9,0,1,0-3.44,12.89,6.82,6.82,0,0,0,5.93-3.45,7,7,0,0,0-2.49-9.44Zm2,6a5.41,5.41,0,0,1-.73,2.75,5.55,5.55,0,0,1-2,2,5.3,5.3,0,0,1-2.72.73,5.22,5.22,0,0,1-2.71-.73,5.58,5.58,0,0,1-2-2,5.46,5.46,0,0,1,0-5.49,5.58,5.58,0,0,1,2-2,5.41,5.41,0,0,1,5.43,0,5.55,5.55,0,0,1,2,2A5.37,5.37,0,0,1,98.32,311.65Z"/><polygon class="cls-1" points="121.6 315.06 112.58 304.29 112.58 318.42 114 318.42 114 308.29 122.56 318.55 123.01 319.09 123.01 304.89 121.6 304.89 121.6 315.06"/><path class="cls-1" d="M144,311.63a4.41,4.41,0,0,0-.94-.36,10.59,10.59,0,0,0-1.12-.23l-.7-.1c-.53-.07-1-.13-1.3-.19a3.57,3.57,0,0,1-.86-.26,3,3,0,0,1-1.05-.88,1.85,1.85,0,0,1-.41-1.08,1.63,1.63,0,0,1,.24-.84,2.59,2.59,0,0,1,.74-.78,3.39,3.39,0,0,1,1.14-.57,4.94,4.94,0,0,1,2.8,0,3.59,3.59,0,0,1,1.16.57,2.69,2.69,0,0,1,.71.77,1.71,1.71,0,0,1,.25.84l0,.41,1.38-.77,0-.17a3.56,3.56,0,0,0-1.47-2.21,5.7,5.7,0,0,0-3.41-1,6.21,6.21,0,0,0-1.84.27,5.42,5.42,0,0,0-1.58.78,4,4,0,0,0-1.12,1.23,3,3,0,0,0-.4,1.52,3.19,3.19,0,0,0,.6,1.86,4.31,4.31,0,0,0,1.64,1.35,6.09,6.09,0,0,0,1.57.46l1,.17a6.8,6.8,0,0,1,2.27.51,3.06,3.06,0,0,1,1,.84,1.71,1.71,0,0,1,.34,1,2,2,0,0,1-1,1.64,4.19,4.19,0,0,1-2.55.77,5,5,0,0,1-1.41-.2,3.56,3.56,0,0,1-1.15-.58,2,2,0,0,1-1-1.6l0-.41-1.38.77,0,.18a3.6,3.6,0,0,0,1.48,2.22,5.42,5.42,0,0,0,1.58.78,6.06,6.06,0,0,0,1.84.27,5.82,5.82,0,0,0,3.42-1.05,3.89,3.89,0,0,0,1.11-1.26,3.17,3.17,0,0,0,.39-1.53,3.1,3.1,0,0,0-.55-1.75A4.58,4.58,0,0,0,144,311.63Z"/><path class="cls-1" d="M168.27,313.26a4.1,4.1,0,0,1-.29,1.51,3.76,3.76,0,0,1-.81,1.23,4,4,0,0,1-1.25.84,3.75,3.75,0,0,1-4.14-.84,3.45,3.45,0,0,1-.82-1.24,3.78,3.78,0,0,1-.29-1.5v-8.37h-1.42v8.37a5.65,5.65,0,0,0,.39,2,5.43,5.43,0,0,0,2.82,2.84,5,5,0,0,0,4,0,5.24,5.24,0,0,0,1.68-1.15,5,5,0,0,0,1.13-1.69,5.65,5.65,0,0,0,.39-2v-8.37h-1.41Z"/><polygon class="cls-1" points="184.66 304.89 183.25 304.89 183.25 318.42 191.97 318.42 191.97 317.01 184.66 317.01 184.66 304.89"/><polygon class="cls-1" points="202.76 306.32 207.93 306.32 207.93 318.42 209.36 318.42 209.36 306.32 214.5 306.32 214.5 304.89 202.76 304.89 202.76 306.32"/><path class="cls-1" d="M236.18,305.67a6.76,6.76,0,0,0-3.43-.92,6.82,6.82,0,0,0-5.93,3.45,6.87,6.87,0,0,0,5.93,10.36,6.82,6.82,0,0,0,5.92-3.45,7,7,0,0,0-2.49-9.44Zm2,6a5.39,5.39,0,0,1-.73,2.75,5.55,5.55,0,0,1-2,2,5.2,5.2,0,0,1-2.71.73,5.33,5.33,0,0,1-2.72-.73,5.69,5.69,0,0,1-2-2,5.49,5.49,0,0,1-.73-2.75,5.43,5.43,0,0,1,.73-2.74,5.61,5.61,0,0,1,2-2,5.41,5.41,0,0,1,5.43,0,5.52,5.52,0,0,1,2,2A5.42,5.42,0,0,1,238.16,311.65Z"/><path class="cls-1" d="M258.12,312.64a3.93,3.93,0,0,0,1.28-.38,4,4,0,0,0,1.67-1.33,3.49,3.49,0,0,0,.38-3.59,4,4,0,0,0-1-1.27,4.26,4.26,0,0,0-1.48-.87,5.1,5.1,0,0,0-1.81-.31h-4.8v13.53h1.41V306.3h3.39a3.63,3.63,0,0,1,1.69.37,2.9,2.9,0,0,1,1.11.95,2.15,2.15,0,0,1,.38,1.19,2.08,2.08,0,0,1-.45,1.28,3,3,0,0,1-1.08.89,6.15,6.15,0,0,1-2.31.36H254.4l5.83,7.08h1.86l-4.72-5.73C257.63,312.68,257.88,312.67,258.12,312.64Z"/><rect class="cls-1" x="275.44" y="304.89" width="1.41" height="13.53"/><path class="cls-1" d="M289.68,318.42h1.56l1.54-3.31h6.6l1.46,3.31h1.54l-6.18-14.05Zm6.48-10.6,2.6,5.88h-5.33Z"/><path class="cls-1" d="M340.84,306.93a6.23,6.23,0,0,0-2.13-1.51,6.7,6.7,0,0,0-2.67-.53h-4v13.53h4a6.6,6.6,0,0,0,2.67-.54,5.94,5.94,0,0,0,2.13-1.53,7,7,0,0,0,1.77-4.71,7.18,7.18,0,0,0-.46-2.56A6.68,6.68,0,0,0,340.84,306.93Zm.34,4.71a5.87,5.87,0,0,1-.36,2.06,5,5,0,0,1-1,1.69A4.79,4.79,0,0,1,336,317h-2.59V306.32H336a4.85,4.85,0,0,1,3.77,1.58,5,5,0,0,1,1,1.68A5.91,5.91,0,0,1,341.18,311.64Z"/><polygon class="cls-1" points="355.54 318.42 364.48 318.42 364.48 316.97 356.95 316.97 356.95 312.37 362.82 312.37 362.82 310.94 356.95 310.94 356.95 306.32 364.48 306.32 364.48 304.89 355.54 304.89 355.54 318.42"/><rect class="cls-1" x="395.32" y="304.89" width="1.41" height="13.53"/><polygon class="cls-1" points="411.21 304.84 410.75 304.18 410.75 318.42 412.16 318.42 412.16 308.64 417.75 316.54 423.27 308.67 423.27 318.42 424.68 318.42 424.68 304.18 417.75 314.08 411.21 304.84"/><path class="cls-1" d="M437.28,318.42h1.57l1.54-3.31H447l1.4,3.16.06.15H450l-6.18-14.05Zm6.49-10.6,2.6,5.88H441Z"/><path class="cls-1" d="M465.39,306.91a5.34,5.34,0,0,1,4.84-.29A5.74,5.74,0,0,1,472,307.9l.17.18,1-1-.16-.19a7.15,7.15,0,0,0-2.26-1.62,6.72,6.72,0,0,0-6.14.35A6.9,6.9,0,0,0,462.2,315a7.1,7.1,0,0,0,2.47,2.49,6.79,6.79,0,0,0,3.42.91h5v-7h-5.73v1.41h4.28V317h-3.51a5.25,5.25,0,0,1-2.7-.74,5.5,5.5,0,0,1-2-2,5.29,5.29,0,0,1-.72-2.72,5.22,5.22,0,0,1,.72-2.7A5.37,5.37,0,0,1,465.39,306.91Z"/><polygon class="cls-1" points="486.8 318.42 495.74 318.42 495.74 316.97 488.21 316.97 488.21 312.37 494.08 312.37 494.08 310.94 488.21 310.94 488.21 306.32 495.74 306.32 495.74 304.89 486.8 304.89 486.8 318.42"/><polygon class="cls-1" points="516.1 314.08 509.56 304.84 509.1 304.18 509.1 318.42 510.51 318.42 510.51 308.64 515.9 316.25 516.1 316.55 521.62 308.67 521.62 318.42 523.02 318.42 523.02 304.18 516.1 314.08"/><path class="cls-1" d="M48.06,269.48a10.28,10.28,0,0,1-1.66,5.71,11.4,11.4,0,0,1-4.72,4.05,16.32,16.32,0,0,1-7.2,1.48,18.51,18.51,0,0,1-7.63-1.66,10.86,10.86,0,0,1-5.42-4.81l.7-.93A10.32,10.32,0,0,0,27.26,278a17.55,17.55,0,0,0,7.22,1.6,9.66,9.66,0,0,0,6.27-1.87,6.37,6.37,0,0,0,2.3-5.24,6.14,6.14,0,0,0-2.36-4.69,27.62,27.62,0,0,0-7.37-4.17,65.74,65.74,0,0,1-6.85-3.29A11.65,11.65,0,0,1,22.68,257a7.89,7.89,0,0,1-1.31-4.58,9.5,9.5,0,0,1,1.78-5.8,11.06,11.06,0,0,1,4.75-3.67,16.4,16.4,0,0,1,6.47-1.25,16.1,16.1,0,0,1,7.46,1.8,11,11,0,0,1,5,4.9l-.76.93a10.38,10.38,0,0,0-4.78-4.75,14.74,14.74,0,0,0-6.82-1.72,11.09,11.09,0,0,0-6.41,1.63,5.47,5.47,0,0,0-2.33,4.78,4.74,4.74,0,0,0,1.08,3.12,9.57,9.57,0,0,0,2.91,2.3c1.23.66,3.06,1.56,5.51,2.68l1.75.82a31.91,31.91,0,0,1,8.36,5.07A8.14,8.14,0,0,1,48.06,269.48Z"/><path class="cls-1" d="M83.09,242v1.16H71.61v37.18H65V243.19H53.54V242Z"/><path class="cls-1" d="M115.32,243.19H97.66v17.43H111v1.16H97.66v17.43h17.66v1.16H91.07V242h24.25Z"/><path class="cls-1" d="M153.84,252.46a9.89,9.89,0,0,1-1.36,4.92,10.5,10.5,0,0,1-4.21,4,14.24,14.24,0,0,1-7,1.58h-10.2v17.42h-6.58V242h16.78a14.52,14.52,0,0,1,7,1.54,10.43,10.43,0,0,1,4.23,4A10,10,0,0,1,153.84,252.46Zm-6.58-.06a9.77,9.77,0,0,0-1.14-4.69,8.81,8.81,0,0,0-3-3.32,6.88,6.88,0,0,0-3.82-1.2h-8.28v18.59h8.28a6.83,6.83,0,0,0,3.82-1.22,9.08,9.08,0,0,0,3-3.38A10.07,10.07,0,0,0,147.26,252.4Z"/><path class="cls-1" d="M185,242h6.58v38.34H185V261.84H168.76v18.53h-6.58V242h6.58v18.65H185Z"/><path class="cls-1" d="M227.16,280.37l-4.9-11.13h-16.2l-5.12,11.13h-1.29l17.78-38.69,16.9,38.69Zm-20.58-12.29H221.8l-7.4-17Z"/><path class="cls-1" d="M271.4,242v38.34h-1.17l-27-28.73v28.73H242V242h1.17l27,28.73V242Z"/><path class="cls-1" d="M282.3,242h6.58v38.34H282.3Z"/><path class="cls-1" d="M333,280.72,316.1,242h7.22l12.77,29.25L349.49,242h1.28Z"/><path class="cls-1" d="M375.72,280.37l-4.9-11.13h-16.2l-5.13,11.13h-1.28L366,241.68l16.9,38.69Zm-20.58-12.29h15.22l-7.41-17Z"/><path class="cls-1" d="M420.13,280.37h-6.76l-1.69-8.21a15.19,15.19,0,0,0-2.89-6.65A6.37,6.37,0,0,0,404,263h-6.88v17.42h-6.58V242h16.78a14.55,14.55,0,0,1,7,1.54,10.43,10.43,0,0,1,4.23,4,9.6,9.6,0,0,1-.94,11.19,11,11,0,0,1-6.73,3.88,10.5,10.5,0,0,1,4.66,3,8.81,8.81,0,0,1,2.33,4.26Zm-23-18.59h8.28a6.85,6.85,0,0,0,3.82-1.22,9.08,9.08,0,0,0,3-3.38,10.07,10.07,0,0,0,1.14-4.78,9.77,9.77,0,0,0-1.14-4.69,8.81,8.81,0,0,0-3-3.32,6.91,6.91,0,0,0-3.82-1.2h-8.28Z"/><path class="cls-1" d="M454.17,243.19H436.51v17.43h13.28v1.16H436.51v17.43h17.66v1.16H429.92V242h24.25Z"/><path class="cls-1" d="M470,279.21h17.66v1.16H463.38V242H470Z"/><path class="cls-1" d="M503.41,279.21h17.66v1.16H496.83V242h6.58Z"/><path class="cls-1" d="M556.21,280.37l-4.89-11.13H535.11L530,280.37h-1.28l17.77-38.69,16.9,38.69Zm-20.57-12.29h15.21l-7.4-17Z"/><path class="cls-1" d="M377,62.65h-4l-41.51,90.62L291.93,62.65H269.54l9.21,21.08c-.71-.34-1.43-.67-2.17-1l-5.41-2.53Q259.8,75,254.11,71.89a29.61,29.61,0,0,1-9-7.13,14.72,14.72,0,0,1-3.33-9.65q0-9.75,7.22-14.8t19.86-5.06A45.45,45.45,0,0,1,290,40.58q10.28,5.33,14.79,14.71l2.36-2.89q-4.71-9.57-15.53-15.16a49.66,49.66,0,0,0-23.11-5.6,51.16,51.16,0,0,0-20,3.88A34.34,34.34,0,0,0,233.71,46.9a29.54,29.54,0,0,0-5.51,17.95A24.3,24.3,0,0,0,232.26,79,35.49,35.49,0,0,0,244,89.32a207.21,207.21,0,0,0,21.21,10.19q15.53,6.51,22.84,12.91T295.36,127q0,10.47-7.13,16.25T268.83,149a54,54,0,0,1-22.4-5q-11-5-15.87-14.35l-2.17,2.89q5.24,9.75,16.78,14.89a57.6,57.6,0,0,0,23.66,5.14q12.81,0,22.29-4.6A36.61,36.61,0,0,0,303,139.14l18.94,43.37Z"/><polygon class="cls-1" points="207.8 14 207.8 15.88 207.8 15.88 207.8 178.21 207.8 178.21 207.8 180.09 304.38 180.09 304.38 176.33 211.56 176.33 211.56 17.76 373.19 17.76 373.19 55.13 376.95 55.13 376.95 17.76 376.95 14.04 376.95 14 207.8 14"/></svg>